<svg xmlns="http://www.w3.org/2000/svg" width="69.752" height="69.869" viewBox="0 0 69.752 69.869">
  <defs>
    <style>
      .cls-1 {
        fill: #fff;
      }
    </style>
  </defs>
  <g id="bxl-instagram-alt" transform="translate(0.002)">
    <path id="Path_195" data-name="Path 195" class="cls-1" d="M74.025,25.095A25.293,25.293,0,0,0,72.4,16.511a17.857,17.857,0,0,0-10.2-10.2,25.589,25.589,0,0,0-8.468-1.627c-3.726-.168-4.906-.214-14.368-.214S28.694,4.47,25,4.684a25.589,25.589,0,0,0-8.462,1.627,17.846,17.846,0,0,0-10.2,10.2,25.386,25.386,0,0,0-1.622,8.462c-.168,3.729-.217,4.912-.217,14.37s0,10.667.217,14.37a25.531,25.531,0,0,0,1.622,8.47,17.857,17.857,0,0,0,10.2,10.195A25.5,25.5,0,0,0,25,74.122c3.729.168,4.912.217,14.371.217s10.673,0,14.371-.217A25.527,25.527,0,0,0,62.208,72.5a17.877,17.877,0,0,0,10.2-10.2,25.441,25.441,0,0,0,1.622-8.47c.168-3.726.217-4.906.217-14.37s-.008-10.66-.225-14.368ZM39.347,57.234a17.906,17.906,0,1,1,17.907-17.9,17.9,17.9,0,0,1-17.907,17.9Zm18.621-32.3a4.174,4.174,0,1,1,4.171-4.176A4.171,4.171,0,0,1,57.968,24.932Z" transform="translate(-4.497 -4.47)"/>
    <path id="Path_196" data-name="Path 196" class="cls-1" d="M36.75,25.1A11.632,11.632,0,1,1,25.118,13.463,11.633,11.633,0,0,1,36.75,25.1Z" transform="translate(9.73 9.76)"/>
  </g>
</svg>
