<svg xmlns="http://www.w3.org/2000/svg" width="58.226" height="58.224" viewBox="0 0 58.226 58.224">
  <defs>
    <style>
      .cls-1 {
        fill: #fff;
      }
    </style>
  </defs>
  <g id="phone" transform="translate(-0.002 -0.001)">
    <path id="Path_197" data-name="Path 197" class="cls-1" d="M47.113,32.112A29.117,29.117,0,0,0,18.006,3L18,8.822a23.285,23.285,0,0,1,23.29,23.29Z" transform="translate(11.115 -2.999)"/>
    <path id="Path_198" data-name="Path 198" class="cls-1" d="M3,23.467V8.911A2.911,2.911,0,0,1,5.911,6H20.468a2.911,2.911,0,0,1,2.911,2.911V20.556a2.911,2.911,0,0,1-2.911,2.911H14.645a23.29,23.29,0,0,0,23.29,23.29V40.935a2.911,2.911,0,0,1,2.911-2.911H52.492A2.911,2.911,0,0,1,55.4,40.935V55.491A2.911,2.911,0,0,1,52.492,58.4H37.936A34.935,34.935,0,0,1,3,23.467Z" transform="translate(-2.998 -0.177)"/>
    <path id="Path_199" data-name="Path 199" class="cls-1" d="M34.136,19.783a17.439,17.439,0,0,1,1.329,6.684h-5.24A12.223,12.223,0,0,0,18,14.24V9A17.468,17.468,0,0,1,34.138,19.783Z" transform="translate(11.115 2.646)"/>
  </g>
</svg>
