<svg xmlns="http://www.w3.org/2000/svg" width="61.139" height="48.037" viewBox="0 0 61.139 48.037">
  <defs>
    <style>
      .cls-1 {
        fill: #fff;
      }
    </style>
  </defs>
  <path id="mail" class="cls-1" d="M55.746,5.625H9.893A7.651,7.651,0,0,0,2.25,13.268V46.019a7.651,7.651,0,0,0,7.643,7.643H55.746a7.651,7.651,0,0,0,7.643-7.643V13.268a7.651,7.651,0,0,0-7.643-7.643ZM53.811,18.266,34.16,33.549a2.184,2.184,0,0,1-2.68,0L11.828,18.266a2.183,2.183,0,1,1,2.68-3.447L32.819,29.06,51.131,14.819a2.183,2.183,0,1,1,2.68,3.447Z" transform="translate(-2.25 -5.625)"/>
</svg>
