<svg xmlns="http://www.w3.org/2000/svg" width="40.91" height="60" viewBox="0 0 40.91 60">
  <path id="Path_51" data-name="Path 51" d="M412.565-1.124c.174,2.691-2,6.287-2.715,10.161-.1.584-1.447.131-1.516.758s1.046,2.675,1.115,3.248-1.7.374-1.7.374l-.27.437h-.749l-.479-1.42s-3.527-.41-3.665.2-.506.139-2.37,1.22-8.663.749-11.276.548c-1.237-.1-3.136-.994-4.347-1.228a3.628,3.628,0,0,0-2.167.209,2.29,2.29,0,0,1-1.7-1.09c-.227-.531-1.873-4.108-.95-4.474s4.138-1.6,4.276-2.037-.95-3.146-1.741-3.337a12.315,12.315,0,0,1-2.64-1.828c-.5-.339.087-1.106-.033-1.864-.132-.809-.689-1.463-.132-1.663,1.081-.4,3.449-1.271,7.02-2.55,1.253-.446,3.431-.062,4.519-.471,1.141-.437,1.15-1.647,1.358-2.037.68-1.324-.033-2.038.374-3.607.539-2.062,2.466-3.7,2.613-5.616.1-1.255-2.682-5.687-3.935-6.157a38.3,38.3,0,0,0-4.617-.243c-2.151-.122-4.04-.428-4.414-.488a35.008,35.008,0,0,1-4.5-2.664s.14,1.184-.339,1.558-.323-1.48-.662-1.028-.339.417-.575.776.341,1.828.087,2.071-.366-.558-.366-.558-.147.671-.348.384a6.6,6.6,0,0,1-.357-1.672s-.341,1.228-.524.889.218-1.219.218-1.219,1.594-2.97,2.473-2.987,4.86,2.325,7.916,2.394,2.918-.609,6.418-.749a2.021,2.021,0,0,1-.618-1.837c.033-.635-1.046-1.2-1.081-3.266s2.936-2.727,4-2.718a2.357,2.357,0,0,1,2.118,1.073,1.774,1.774,0,0,0,1.454.974c.347.081-.27.68-.27.68l.878,1.324a.526.526,0,0,1-.321.749,12.582,12.582,0,0,1-1.726.495c-.207.071-.33.662.062,1.1.252.294,1.34,1.783,1.888,1.088a11.124,11.124,0,0,0,.872-2.011c.252-.671.809-1.36,1.046-2.136a11.021,11.021,0,0,0,.522-3.674A20.239,20.239,0,0,0,398.38-41.1c-.41-.609-2.265-.644-2.421-.635-.393.018-1.559.114-1.6-.279s1.489-.306,1.69-.426-.513-1.01-.513-1.01-.863.156-.95-.087.662-.446.662-.446-.959-.956-.872-1.34,1.4,1.358,1.933,1.489c.7.174,2.125.279,2.874,1.157a23.6,23.6,0,0,1,4.006,7.212c.062.653-.192,2.7-.426,4.989-.243,2.394-1.255,3.944-1.22,5.058.009.515.366.89.776,1.63.582,1.054-.611,1.663-.715,6.7a38.544,38.544,0,0,0,.548,5.547s1.15-1.75,2.274-1.714,1.393-.575,3.125-1.734,1.22-2.769,1.7-3.7,1.663-3.6,2.577-3.056a11.639,11.639,0,0,1,3.832,7.4c.339,3.667-1.453,3.493-1.28,5.513.156,2.02-1.977,5.025-1.812,7.716Zm0,0" transform="translate(-374.79 45.384)" fill="#fff"/>
</svg>
