<svg id="Group_4" data-name="Group 4" xmlns="http://www.w3.org/2000/svg" width="70.86" height="60" viewBox="0 0 70.86 60">
  <path id="Path_49" data-name="Path 49" d="M574.491-324.81v1.542a16.129,16.129,0,0,1,3.4.048,2.114,2.114,0,0,1,1.573,1.189l3.007,6.409a2.107,2.107,0,0,1,1,.544,2.827,2.827,0,0,0,1.289.75,2.8,2.8,0,0,0,2.646-.7,2.144,2.144,0,0,1,2.633-.337,2.118,2.118,0,0,1,.387,3.3,6.973,6.973,0,0,1-4.964,2.057c-.121,0-.241,0-.361-.009l4.042,8.616q.256.545.486,1.1a13.287,13.287,0,0,1,13.346,3.207,2.156,2.156,0,0,1,.143,2.954,2.11,2.11,0,0,1-1.583.712,2.107,2.107,0,0,1-1.5-.62,9.055,9.055,0,0,0-9.075-2.24,28.051,28.051,0,0,1-.116,14.077q.858.284,1.746.505a4.351,4.351,0,0,0,2.091,0A23.85,23.85,0,0,0,612.8-304.863V-324.81a2.371,2.371,0,0,0-1.534-2.221c-2.913-1.095-8.544-2.583-17.618-2.583s-14.706,1.489-17.62,2.584a2.369,2.369,0,0,0-1.534,2.22Zm23.386,9.75a2.116,2.116,0,0,1,2.992,0,2.77,2.77,0,0,0,1.972.817,2.771,2.771,0,0,0,1.972-.817,2.115,2.115,0,0,1,2.992,0,2.115,2.115,0,0,1,0,2.991,6.974,6.974,0,0,1-4.964,2.057,6.975,6.975,0,0,1-4.964-2.057,2.115,2.115,0,0,1,0-2.991Zm0,0" transform="translate(-541.938 329.614)" fill="#fff"/>
  <path id="Path_50" data-name="Path 50" d="M382.655-233.77l-8.518-18.154a2.221,2.221,0,0,0-2.181-1.269c-3.076.233-8.844,1.253-17.154,5.151-8.216,3.855-12.681,7.594-14.854,9.822a2.371,2.371,0,0,0-.446,2.662l8.472,18.058a23.851,23.851,0,0,0,26.231,13.266,4.331,4.331,0,0,0,1.885-.885,23.85,23.85,0,0,0,6.564-28.652Zm-17.117-1.353a7.028,7.028,0,0,1,8.988-4.217,2.116,2.116,0,0,1,1.27,2.708,2.115,2.115,0,0,1-2.708,1.27,2.793,2.793,0,0,0-3.571,1.675,2.116,2.116,0,0,1-1.989,1.4,2.107,2.107,0,0,1-.719-.126,2.116,2.116,0,0,1-1.271-2.709Zm-8.181,7.143a2.771,2.771,0,0,0-2.133.1,2.77,2.77,0,0,0-1.438,1.577,2.117,2.117,0,0,1-1.99,1.4,2.119,2.119,0,0,1-.718-.127,2.115,2.115,0,0,1-1.271-2.709,6.975,6.975,0,0,1,3.62-3.97,6.974,6.974,0,0,1,5.367-.247,2.115,2.115,0,0,1,1.271,2.708,2.116,2.116,0,0,1-2.708,1.27Zm7.1,13.828a13.209,13.209,0,0,1-4.5-.791,2.115,2.115,0,0,1-1.271-2.708,2.115,2.115,0,0,1,2.708-1.271,9.056,9.056,0,0,0,11.581-5.433,2.115,2.115,0,0,1,2.708-1.271,2.116,2.116,0,0,1,1.27,2.709,13.3,13.3,0,0,1-12.5,8.765Zm0,0" transform="translate(-339.277 263.775)" fill="#fff"/>
</svg>
