<svg xmlns="http://www.w3.org/2000/svg" width="14.182" height="11.359" viewBox="0 0 14.182 11.359">
  <defs>
    <style>
      .cls-1 {
        fill: rgba(138,143,138,0.53);
      }
    </style>
  </defs>
  <path id="email" class="cls-1" d="M12.754,1.75a1.417,1.417,0,0,1,1.428,1.428v8.5a1.418,1.418,0,0,1-1.428,1.428H1.428a1.379,1.379,0,0,1-1.013-.415A1.377,1.377,0,0,1,0,11.681v-8.5A1.379,1.379,0,0,1,.415,2.165,1.377,1.377,0,0,1,1.428,1.75Zm0,2.857V3.178L7.075,6.732,1.428,3.178V4.606L7.075,8.127Z" transform="translate(0 -1.75)"/>
</svg>
