<svg xmlns="http://www.w3.org/2000/svg" width="69.871" height="69.869" viewBox="0 0 69.871 69.869">
  <defs>
    <style>
      .cls-1 {
        fill: #fff;
      }
    </style>
  </defs>
  <path id="facebook-rect" class="cls-1" d="M12.757,0A12.73,12.73,0,0,0,0,12.757V57.11A12.73,12.73,0,0,0,12.757,69.867H36.8V42.554H29.575V32.72H36.8v-8.4c0-6.6,4.268-12.662,14.1-12.662a59.569,59.569,0,0,1,6.923.382l-.231,9.184s-3-.029-6.277-.029c-3.546,0-4.113,1.634-4.113,4.345V32.72H57.871L57.4,42.554H47.2V69.869h9.916A12.73,12.73,0,0,0,69.871,57.112V12.757A12.73,12.73,0,0,0,57.114,0Z"/>
</svg>
