<svg xmlns="http://www.w3.org/2000/svg" width="73.94" height="60" viewBox="0 0 73.94 60">
  <path id="Path_53" data-name="Path 53" d="M978.2-149.713a1.028,1.028,0,0,0-.831-.643,1.028,1.028,0,0,0-.961.424c-1.3,1.819-3,2.425-4.973,3.127a18.6,18.6,0,0,0-5.013,2.429c-2.514,1.8-3.664,4.265-3.091,6.6l-.061.079a33.712,33.712,0,0,0-3.4-4.19,31.748,31.748,0,0,0-21.62-9.7c-.357-.013-.719-.019-1.078-.019a31.358,31.358,0,0,0-23.753,11.094,31.215,31.215,0,0,0-7.319,25.048c.115.745.257,1.5.425,2.236C908.757-103.444,914.438-96,922.12-92.8a14.753,14.753,0,0,0,5.677,1.188,12.632,12.632,0,0,0,11.15-6.828,14.765,14.765,0,0,0,1.774-5.075,12.3,12.3,0,0,0-.051-3.007,11.31,11.31,0,0,1-.044-2.925,3.919,3.919,0,0,1,4.116-3.518,6.328,6.328,0,0,1,1.927.31c-.757,1.388-1.444,2.714-2.045,3.942a39.918,39.918,0,0,0-2.61,6.409c-.283,1.016-1.036,3.717.8,4.991a2.744,2.744,0,0,0,2.091.4c.693-.129,2.8-.521,8.794-7.342,1.608-1.831,3.341-3.949,5.152-6.3a13.953,13.953,0,0,0,9.226-9.942,14.618,14.618,0,0,0,.3-3.562c1.741-2.691,3.268-5.2,4.8-7.9.029-.052.059-.108.087-.165a8.465,8.465,0,0,0,5.28-4.774c1.646-3.543,1.525-8.1-.342-12.819Zm-25.139,16.774a4.361,4.361,0,0,1-3.71,2.046,4.365,4.365,0,0,1-2.328-.674,4.349,4.349,0,0,1-1.937-2.735,4.35,4.35,0,0,1,.564-3.3,4.361,4.361,0,0,1,3.71-2.046,4.364,4.364,0,0,1,2.329.674,4.348,4.348,0,0,1,1.937,2.735,4.353,4.353,0,0,1-.564,3.3ZM958.746-125c2.214-3.262,4.556-6.5,6.779-9.388a12.117,12.117,0,0,0,1.2.946,9.252,9.252,0,0,0,2.253,1.157c-1.877,3.21-3.9,6.391-6.34,9.992a164.364,164.364,0,0,1-11.758,15.477,45.4,45.4,0,0,1-5.078,5.107,45.776,45.776,0,0,1,2.888-6.633A164.936,164.936,0,0,1,958.746-125Zm-38.869-.028a4.365,4.365,0,0,1-2.329-.674,4.351,4.351,0,0,1-1.937-2.735,4.351,4.351,0,0,1,.565-3.3,4.361,4.361,0,0,1,3.709-2.046,4.363,4.363,0,0,1,2.329.674,4.384,4.384,0,0,1,1.372,6.038,4.36,4.36,0,0,1-3.71,2.046Zm-4.59,9.643a4.359,4.359,0,0,1,3.71-2.047,4.361,4.361,0,0,1,2.328.675,4.355,4.355,0,0,1,1.937,2.735,4.345,4.345,0,0,1-.566,3.3,4.358,4.358,0,0,1-3.709,2.046,4.363,4.363,0,0,1-2.329-.674,4.351,4.351,0,0,1-1.937-2.735,4.356,4.356,0,0,1,.565-3.3ZM929.311-141.4a4.358,4.358,0,0,1,3.709-2.046,4.359,4.359,0,0,1,2.328.674,4.384,4.384,0,0,1,1.373,6.038,4.362,4.362,0,0,1-3.71,2.047,4.363,4.363,0,0,1-2.329-.674,4.347,4.347,0,0,1-1.936-2.735,4.35,4.35,0,0,1,.565-3.3Zm0,0" transform="translate(-905.756 151.614)" fill="#fff"/>
</svg>
