<svg xmlns="http://www.w3.org/2000/svg" width="12.403" height="12.403" viewBox="0 0 12.403 12.403">
  <defs>
    <style>
      .cls-1 {
        fill: rgba(138,143,138,0.53);
      }
    </style>
  </defs>
  <path id="instagram" class="cls-1" d="M8.268,6.2A2.068,2.068,0,0,0,6.2,4.134,2.068,2.068,0,0,0,4.134,6.2,2.068,2.068,0,0,0,6.2,8.268,2.068,2.068,0,0,0,8.268,6.2Zm1.114,0A3.17,3.17,0,0,1,6.2,9.383,3.17,3.17,0,0,1,3.02,6.2,3.17,3.17,0,0,1,6.2,3.02,3.17,3.17,0,0,1,9.383,6.2Zm.872-3.31a.743.743,0,1,1-1.267-.525.743.743,0,0,1,1.267.525ZM6.2,1.114l-.618,0q-.561,0-.852,0t-.779.024a6.368,6.368,0,0,0-.832.081,3.209,3.209,0,0,0-.577.15A2.112,2.112,0,0,0,1.365,2.544a3.24,3.24,0,0,0-.15.577,6.368,6.368,0,0,0-.081.832q-.02.489-.024.779t0,.852q0,.561,0,.618t0,.618q0,.561,0,.852t.024.779a6.368,6.368,0,0,0,.081.832,3.221,3.221,0,0,0,.15.577,2.112,2.112,0,0,0,1.179,1.179,3.24,3.24,0,0,0,.577.15,6.368,6.368,0,0,0,.832.081q.489.02.779.024t.852,0l.618,0,.618,0q.561,0,.852,0t.779-.024a6.367,6.367,0,0,0,.832-.081,3.241,3.241,0,0,0,.577-.15,2.112,2.112,0,0,0,1.179-1.179,3.24,3.24,0,0,0,.15-.577,6.368,6.368,0,0,0,.081-.832q.02-.489.024-.779t0-.852q0-.561,0-.618t0-.618q0-.561,0-.852t-.024-.779a6.367,6.367,0,0,0-.081-.832,3.178,3.178,0,0,0-.15-.577A2.112,2.112,0,0,0,9.859,1.365a3.24,3.24,0,0,0-.577-.15,6.368,6.368,0,0,0-.832-.081q-.489-.02-.779-.024t-.852,0l-.618,0ZM12.4,6.2q0,1.849-.04,2.56a3.787,3.787,0,0,1-1,2.6,3.787,3.787,0,0,1-2.6,1q-.711.04-2.56.04t-2.56-.04a3.787,3.787,0,0,1-2.6-1,3.787,3.787,0,0,1-1-2.6Q0,8.05,0,6.2t.04-2.56a3.787,3.787,0,0,1,1-2.6,3.787,3.787,0,0,1,2.6-1Q4.352,0,6.2,0t2.56.04a3.787,3.787,0,0,1,2.6,1,3.787,3.787,0,0,1,1,2.6Q12.4,4.352,12.4,6.2Z"/>
</svg>
