<svg id="Group_5" data-name="Group 5" xmlns="http://www.w3.org/2000/svg" width="63.734" height="60" viewBox="0 0 63.734 60">
  <path id="Path_54" data-name="Path 54" d="M705.361-80.417l1.992-.871a1.867,1.867,0,0,0,.962-2.459,1.867,1.867,0,0,0-2.459-.962l-1.992.871a1.867,1.867,0,0,0-.962,2.459,1.867,1.867,0,0,0,2.459.962Zm0,0" transform="translate(-644.737 115.986)" fill="#fff"/>
  <path id="Path_55" data-name="Path 55" d="M707.352,11.41l-1.992-.871a1.867,1.867,0,1,0-1.5,3.421l1.992.871a1.867,1.867,0,1,0,1.5-3.421Zm0,0" transform="translate(-644.737 36.547)" fill="#fff"/>
  <path id="Path_56" data-name="Path 56" d="M706.6-34.614h-1.992a1.867,1.867,0,0,0-1.867,1.867,1.868,1.868,0,0,0,1.867,1.867H706.6a1.867,1.867,0,0,0,1.867-1.867,1.867,1.867,0,0,0-1.867-1.867Zm0,0" transform="translate(-644.738 74.075)" fill="#fff"/>
  <path id="Path_57" data-name="Path 57" d="M389.282-242.24c15.036-7.457,14.031-6.971,14.382-7.1v-17.42a5.609,5.609,0,0,0-5.6-5.6H358.852a5.609,5.609,0,0,0-5.6,5.6v30a5.609,5.609,0,0,0,5.6,5.6h13.2v-2.988a8.1,8.1,0,0,1,8.091-8.091Zm-17.459-.384a1.869,1.869,0,0,1-2.7-1.67v-14.938a1.869,1.869,0,0,1,2.7-1.67l14.938,7.469a1.869,1.869,0,0,1,0,3.34Zm0,0" transform="translate(-353.25 272.364)" fill="#fff"/>
  <path id="Path_58" data-name="Path 58" d="M471.375-166.141l8.9-4.448-8.9-4.448Zm0,0" transform="translate(-451.769 191.19)" fill="#fff"/>
  <path id="Path_59" data-name="Path 59" d="M493.357-69.765A4.362,4.362,0,0,0,489-65.408v6.224a4.364,4.364,0,0,0,3.415,4.253L490.892-45.8a1.868,1.868,0,0,0,1.842,2.175H500.2a1.866,1.866,0,0,0,1.838-1.54l1.687-9.488.209.1v-15.5l-.562.279Zm0,0" transform="translate(-466.469 103.624)" fill="#fff"/>
  <path id="Path_60" data-name="Path 60" d="M611.873-113.179,601.5-108.035v19.2l10.373,5.144a1.869,1.869,0,0,0,2.7-1.673v-26.141a1.868,1.868,0,0,0-2.7-1.673Zm0,0" transform="translate(-560.297 139.763)" fill="#fff"/>
</svg>
