<svg xmlns="http://www.w3.org/2000/svg" width="41.562" height="60" viewBox="0 0 41.562 60">
  <path id="Path_61" data-name="Path 61" d="M480.13-34.457a24.925,24.925,0,0,0,3.342-10.972,15.32,15.32,0,0,0-1.615-7.611c-1.9-3.887-5.156-6.07-8.3-8.179a23.489,23.489,0,0,1-6.139-5.184l-.282-.379c-.928-1.246-1.975-2.659-2.142-3.845a2.334,2.334,0,0,0-2.446-1.985,2.3,2.3,0,0,0-2.146,2.3v41.126a13.351,13.351,0,0,0-6.924-1.892c-6.36,0-11.539,4.14-11.539,9.232s5.179,9.232,11.539,9.232,11.539-4.14,11.539-9.232v-26.9a16.612,16.612,0,0,1,10.7,12.578,13.023,13.023,0,0,1-.891,1.26,2.3,2.3,0,0,0,.208,3.255,2.3,2.3,0,0,0,3.254-.208,17.116,17.116,0,0,0,1.694-2.382,1.465,1.465,0,0,0,.152-.213Zm0,0" transform="translate(-441.934 72.614)" fill="#fff"/>
</svg>
