<svg xmlns="http://www.w3.org/2000/svg" width="29.25" height="29.25" viewBox="0 0 29.25 29.25">
  <g id="people-circle-outline" transform="translate(-3.375 -3.375)">
    <path id="Path_129" data-name="Path 129" d="M18,32.625A14.625,14.625,0,1,1,32.625,18,14.642,14.642,0,0,1,18,32.625Zm0-27A12.375,12.375,0,1,0,30.375,18,12.394,12.394,0,0,0,18,5.625Z" fill="#fff"/>
    <path id="Path_130" data-name="Path 130" d="M22.758,20.531A4.573,4.573,0,0,1,19.429,19,5.889,5.889,0,0,1,17.882,15.4a4.921,4.921,0,0,1,1.257-3.77,5.093,5.093,0,0,1,7.228.009A4.935,4.935,0,0,1,27.633,15.4,5.906,5.906,0,0,1,26.086,19,4.571,4.571,0,0,1,22.758,20.531ZM26.682,15.328Z" fill="#fff"/>
    <path id="Path_131" data-name="Path 131" d="M11.519,20.768a4.453,4.453,0,0,1-4.1-4.312,4.137,4.137,0,0,1,1.067-3.17,4.079,4.079,0,0,1,3.034-1.266,4.08,4.08,0,0,1,3.028,1.275,4.146,4.146,0,0,1,1.072,3.164,4.457,4.457,0,0,1-4.1,4.308Z" fill="#fff"/>
    <path id="Path_132" data-name="Path 132" d="M29.557,24.981a2,2,0,0,0-.93-1.017,11.234,11.234,0,0,0-5.87-1.541,11.326,11.326,0,0,0-5.873,1.564A7.792,7.792,0,0,0,13.3,28.781a3.782,3.782,0,0,0-.106,1.836A13.513,13.513,0,0,0,29.557,24.98Z" fill="#fff"/>
    <path id="Path_133" data-name="Path 133" d="M11.505,28.221a9.127,9.127,0,0,1,3.2-4.975.563.563,0,0,0-.182-.968,9.74,9.74,0,0,0-3-.413,9.444,9.444,0,0,0-4.791,1.278,3.758,3.758,0,0,1-1.039.4,13.559,13.559,0,0,0,5.469,6.092l.126-.01a7.23,7.23,0,0,1,.222-1.408Z" fill="#fff"/>
  </g>
</svg>
