<svg xmlns="http://www.w3.org/2000/svg" width="10.632" height="10.632" viewBox="0 0 10.632 10.632">
  <g id="phone" transform="translate(-3 -3)">
    <path id="Path_42" data-name="Path 42" d="M23.316,8.316A5.317,5.317,0,0,0,18,3V4.063a4.252,4.252,0,0,1,4.253,4.253Z" transform="translate(-9.684)" fill="#f3c300"/>
    <path id="Path_43" data-name="Path 43" d="M3,9.19V6.532A.532.532,0,0,1,3.532,6H6.19a.532.532,0,0,1,.532.532V8.658a.532.532,0,0,1-.532.532H5.126a4.253,4.253,0,0,0,4.253,4.253V12.379a.532.532,0,0,1,.532-.532h2.126a.532.532,0,0,1,.532.532v2.658a.532.532,0,0,1-.532.532H9.379A6.379,6.379,0,0,1,3,9.19Z" transform="translate(0 -1.937)" fill="#f3c300"/>
    <path id="Path_44" data-name="Path 44" d="M20.947,10.969a3.185,3.185,0,0,1,.243,1.221h-.957A2.232,2.232,0,0,0,18,9.957V9a3.19,3.19,0,0,1,2.947,1.969Z" transform="translate(-9.684 -3.874)" fill="#f3c300"/>
  </g>
</svg>
