<svg id="Group_112" data-name="Group 112" xmlns="http://www.w3.org/2000/svg" width="39.961" height="29.379" viewBox="0 0 39.961 29.379">
  <defs>
    <style>
      .cls-1 {
        fill: #fff;
      }
    </style>
  </defs>
  <path id="Path_102" data-name="Path 102" class="cls-1" d="M617.737,427.06l-2.266-1.283c-2.264-1.283-1.636-1.549-2.643-3.56s-4.151-2.015-4.151-2.015l-26.8,5.744,28.376,4.84Zm0,0" transform="translate(-577.776 -420.202)"/>
  <path id="Path_103" data-name="Path 103" class="cls-1" d="M609.453,432.254l-28.12-4.955v5.244l-4.1,1.638V437.7l6.91,1.007,1.608,8.636c.1.51.248.51.344,0l1.515-8.128,4.226.617v6.344L590,446.047v1.759l7.69.566v-1.759l-1.745-.128v-6.048l6.182.9,1.622,8.684c.093.514.248.514.344,0l1.522-8.177,1.631.238.073-3.375,2.135-1.259ZM594.812,446.4l-1.839-.138V440l1.839.269Zm10.616-6.762-25.951-3.681,4.009-1.652.586.086-1.736,1.173.946.248,1.193-1.363,1.759.259-1.635,1.1.945.252,1.131-1.29,1.722.252-1.532,1.039.942.252,1.066-1.218,3.853.566-1.335.9.942.252.942-1.073,1.614.234-1.235.839.945.252.873-1,3.744.552-1.035.7.945.252.749-.855,3.671.541-.838.565.945.253.621-.711,2.9.427Zm0,0" transform="translate(-577.234 -421.031)"/>
  <path id="Path_104" data-name="Path 104" class="cls-1" d="M614.1,438.106l-2.2,1.256v2.991l9.343-6.358v-7.155l-7.142,3.667Zm0,0" transform="translate(-581.283 -421.211)"/>
</svg>
