<svg xmlns="http://www.w3.org/2000/svg" width="69.871" height="69.869" viewBox="0 0 69.871 69.869">
  <defs>
    <style>
      .cls-1 {
        fill: #fff;
      }
    </style>
  </defs>
  <path id="twitter-square" class="cls-1" d="M58.226,21.925a20.251,20.251,0,0,1-5.5,1.547,9.289,9.289,0,0,0,4.231-5.322,18.954,18.954,0,0,1-6.1,2.319,9.08,9.08,0,0,0-6.96-3,9.552,9.552,0,0,0-9.553,9.553,8.774,8.774,0,0,0,.227,2.183,27.057,27.057,0,0,1-11.009-2.956A27.028,27.028,0,0,1,14.83,19.2a9.457,9.457,0,0,0-1.32,4.821,9.011,9.011,0,0,0,4.14,7.961A11.255,11.255,0,0,1,13.1,30.8v.091a9.083,9.083,0,0,0,2.275,6.073,9.545,9.545,0,0,0,5.6,3.3,8.855,8.855,0,0,1-2.319.365,12.766,12.766,0,0,1-1.774-.182,9.709,9.709,0,0,0,3.389,4.732,9.074,9.074,0,0,0,5.528,1.91,18.878,18.878,0,0,1-11.872,4.093,18.433,18.433,0,0,1-2.275-.136,26.8,26.8,0,0,0,14.648,4.276A27.839,27.839,0,0,0,35.848,53.7a24.6,24.6,0,0,0,7.643-4.322,28.681,28.681,0,0,0,5.481-6.232A27.5,27.5,0,0,0,53.5,28.111q0-.819-.045-1.229a18.559,18.559,0,0,0,4.776-4.959ZM69.871,13.1V56.769a13.12,13.12,0,0,1-13.1,13.1H13.1a12.623,12.623,0,0,1-9.258-3.843A12.608,12.608,0,0,1,0,56.769V13.1A12.623,12.623,0,0,1,3.843,3.843,12.609,12.609,0,0,1,13.1,0H56.77a12.623,12.623,0,0,1,9.258,3.843A12.608,12.608,0,0,1,69.871,13.1Z"/>
</svg>
