<svg xmlns="http://www.w3.org/2000/svg" width="14.029" height="11.408" viewBox="0 0 14.029 11.408">
  <defs>
    <style>
      .cls-1 {
        fill: rgba(138,143,138,0.52);
      }
    </style>
  </defs>
  <path id="twitter" class="cls-1" d="M7.407,17.408A8.138,8.138,0,0,0,15.6,9.217c0-.123,0-.247-.006-.37a5.864,5.864,0,0,0,1.438-1.495,5.834,5.834,0,0,1-1.655.455,2.9,2.9,0,0,0,1.268-1.595,5.726,5.726,0,0,1-1.831.7A2.878,2.878,0,0,0,9.833,8.88a3.18,3.18,0,0,0,.073.657A8.175,8.175,0,0,1,3.971,6.528a2.887,2.887,0,0,0,.893,3.845,2.912,2.912,0,0,1-1.3-.359v.039a2.885,2.885,0,0,0,2.308,2.824,2.807,2.807,0,0,1-.758.1,2.84,2.84,0,0,1-.54-.051,2.879,2.879,0,0,0,2.689,2,5.774,5.774,0,0,1-3.576,1.235A5.538,5.538,0,0,1,3,16.122a8.189,8.189,0,0,0,4.408,1.286" transform="translate(-3 -6)"/>
</svg>
