<svg xmlns="http://www.w3.org/2000/svg" width="31.5" height="31.5" viewBox="0 0 31.5 31.5">
  <g id="user-avatar" transform="translate(-2.25 -2.25)">
    <path id="Path_127" data-name="Path 127" d="M18,2.25A15.75,15.75,0,1,0,33.75,18,15.75,15.75,0,0,0,18,2.25ZM11.25,29.677v-2.25a3.623,3.623,0,0,1,3.375-3.8h6.75a3.623,3.623,0,0,1,3.375,3.814v2.25a13.41,13.41,0,0,1-13.5,0ZM27,28.034v-.686a5.861,5.861,0,0,0-5.625-5.973h-6.75A5.85,5.85,0,0,0,9,27.349v.664a13.5,13.5,0,1,1,18,0Z" fill="#fff"/>
    <path id="Path_128" data-name="Path 128" d="M18,7.875A5.625,5.625,0,1,0,23.625,13.5,5.625,5.625,0,0,0,18,7.875Zm0,9A3.375,3.375,0,1,1,21.375,13.5,3.375,3.375,0,0,1,18,16.875Z" fill="#fff"/>
  </g>
</svg>
