<svg xmlns="http://www.w3.org/2000/svg" width="69.873" height="69.869" viewBox="0 0 69.873 69.869">
  <defs>
    <style>
      .cls-1 {
        fill: #fff;
      }
    </style>
  </defs>
  <path id="whatsappalt" class="cls-1" d="M37.119,65.5a32.465,32.465,0,0,1-15.9-4.093L0,69.869,8.46,48.648a32.463,32.463,0,0,1-4.093-15.9A31.922,31.922,0,0,1,6.96,20.025,32.406,32.406,0,0,1,24.393,2.593a32.527,32.527,0,0,1,25.452,0A32.413,32.413,0,0,1,67.28,20.027a32.525,32.525,0,0,1,0,25.452A32.413,32.413,0,0,1,49.845,62.913,31.876,31.876,0,0,1,37.119,65.5Zm0-56.769A23.9,23.9,0,0,0,13.1,32.751,23.9,23.9,0,0,0,37.119,56.769,23.9,23.9,0,0,0,61.137,32.751,23.9,23.9,0,0,0,37.119,8.734Zm11.8,37.8q-2.661,2.661-8.289.784a28.347,28.347,0,0,1-10.917-7.164,28.3,28.3,0,0,1-7.164-10.917q-1.875-5.63.782-8.291l3.206-3.206q.41-.41,1.4.1a5.188,5.188,0,0,1,1.809,1.671,4,4,0,0,1,.819,2.319V26.2l-2.183,2.457q.819,3.07,5.289,7.54t7.538,5.287L43.669,39.3h4.367a4,4,0,0,1,2.319.819,5.188,5.188,0,0,1,1.671,1.809q.512.99.1,1.4Z"/>
</svg>
